<svg
        width="103px"
        height="103px"
        viewBox="0 0 103 103"
        version="1.1"
        xmlns="http://www.w3.org/2000/svg"
        role="img"
    >
        <g stroke="none" strokeWidth="1" fill="none" fillRule="evenodd">
            <g fillRule="nonzero">
                <g>
                    <path
                        d="M102.4,51.4 C102.4,79.6768 79.4768,102.6 51.2,102.6 C22.9232,102.6 0,79.6768 0,51.4 C0,51.412 51.2,0.2058 51.2,0.2 C79.4768,0.2 102.4,23.1232 102.4,51.4 Z"
                        fill="#0052B4"
                    />
                    <g fill="#F0F0F0">
                        <path d="M51.2,0.2 C51.1972,0.2 51.1942,0.2002 51.1914,0.2002 L51.2,0.2 L51.2,0.2 Z" />
                        <path d="M51.063,51.4 L51.2,51.4 C51.2,51.3536 51.2,51.3092 51.2,51.263 C51.1544,51.3088 51.1088,51.3544 51.063,51.4 Z" />
                        <path d="M51.2002,26.9132 C51.2002,17.9042 51.2002,12.0008 51.2002,0.2002 L51.1914,0.2002 C22.9184,0.2048 0,23.1258 0,51.4 L26.713,51.4 L26.713,36.3576 L41.7554,51.4 L51.0632,51.4 C51.109,51.3544 51.1546,51.3088 51.2002,51.263 C51.2002,47.8136 51.2002,44.7358 51.2002,41.9558 L36.1576,26.9132 L51.2002,26.9132 Z" />
                    </g>
                    <g transform="translate(6.600000, 6.800000)" fill="#D80027">
                        <path d="M19.303,0.0782 C11.2952,4.638 4.638,11.2952 0.0782,19.303 L0.0782,44.6 L13.4348,44.6 L13.4348,13.435 L13.4348,13.4348 L44.6,13.4348 C44.6,9.2222 44.6,5.209 44.6,0.0782 L19.303,0.0782 Z" />
                        <path d="M44.6,38.3038 L26.4094,20.1133111 L20.1132,20.1133111 C20.1132,20.1133111 20.1132,20.1133111 20.1132,20.1133111 L44.6,44.6 L44.6,44.6 C44.6,44.6 44.6,40.259 44.6,38.3038 Z" />
                    </g>
                    <g transform="translate(19.400000, 22.400000)" fill="#F0F0F0">
                        <polygon points="11.479 37.9044 14.289 43.78 20.6344 42.3134 17.7928 48.1738 22.8956 52.2204 16.5422 53.6524 16.56 60.1652 11.479 56.0906 6.3982 60.1652 6.416 53.6524 0.0624 52.2204 5.1654 48.1738 2.3234 42.3134 8.6692 43.78" />
                        <polygon points="57.2568 49.0348 58.6618 51.9726 61.8346 51.2392 60.4136 54.1694 62.9652 56.1928 59.7884 56.9088 59.7972 60.1652 57.2568 58.1278 54.7164 60.1652 54.7252 56.9088 51.5486 56.1928 54.1 54.1694 52.6792 51.2392 55.8518 51.9726" />
                        <polygon points="44.1866 17.8696 45.5914 20.8076 48.7642 20.074 47.3434 23.0042 49.8948 25.0276 46.7182 25.7436 46.7268 29 44.1866 26.9626 41.6462 29 41.6548 25.7436 38.4782 25.0276 41.0296 23.0042 39.6088 20.074 42.7816 20.8076" />
                        <polygon points="57.2568 0.0608 58.6618 2.9988 61.8346 2.2654 60.4138 5.1956 62.965 7.2188 59.7884 7.935 59.7972 11.1914 57.2568 9.154 54.7164 11.1914 54.7252 7.935 51.5486 7.2188 54.0998 5.1956 52.6792 2.2654 55.8518 2.9988" />
                        <polygon points="68.6736 13.4174 70.0784 16.3554 73.2512 15.6218 71.8304 18.552 74.3818 20.5754 71.205 21.2916 71.2138 24.5478 68.6736 22.5106 66.1332 24.5478 66.1418 21.2916 62.9652 20.5754 65.5166 18.552 64.0958 15.6218 67.2684 16.3554" />
                        <polygon points="60.51 29 61.615 32.4012 65.1914 32.4012 62.298 34.5034 63.4034 37.9044 60.51 35.8024 57.6168 37.9044 58.7218 34.5034 55.8286 32.4012 59.4048 32.4012" />
                    </g>
                </g>
            </g>
        </g>
    </svg>
