<svg
    width="103px"
    height="103px"
    viewBox="0 0 103 103"
    version="1.1"
    xmlns="http://www.w3.org/2000/svg"
    role="img"
>
    <g id="Symbols" stroke="none" strokeWidth="1" fill="none" fillRule="evenodd">
        <g fillRule="nonzero">
            <g>
                <circle fill="#F0F0F0" cx="51.2" cy="51.2" r="51.2" />
                <g transform="translate(0.000000, 5.000000)" fill="#D80027">
                    <path d="M102.4,46.2 C102.4,25.9012 90.587,8.362 73.4608,0.0804 L73.4608,92.3194 C90.587,84.038 102.4,66.4988 102.4,46.2 Z" />
                    <path d="M0,46.2 C0,66.4988 11.813,84.038 28.9392,92.3196 L28.9392,0.0804 C11.813,8.362 0,25.9012 0,46.2 Z" />
                    <polygon points="60.1044 52.8782 69.0086 48.426 64.5566 46.2 64.5566 41.7478 55.6522 46.2 60.1044 37.2956 55.6522 37.2956 51.2 30.6174 46.7478 37.2956 42.2956 37.2956 46.7478 46.2 37.8434 41.7478 37.8434 46.2 33.3914 48.426 42.2956 52.8782 40.0696 57.3304 48.974 57.3304 48.974 64.0086 53.426 64.0086 53.426 57.3304 62.3304 57.3304" />
                </g>
            </g>
        </g>
    </g>
</svg>
