<svg width="14" height="14" viewBox="0 0 14 14" fill="none" xmlns="http://www.w3.org/2000/svg">
<path d="M1.15186 9.20982C2.06491 11.6706 4.43356 13.4243 7.21205 13.4243C9.99054 13.4243 12.3592 11.6706 13.2722 9.20982L7.21205 8.64792L1.15186 9.20982Z" fill="#FFDA44"/>
<path d="M7.21205 0.5C4.43356 0.5 2.06491 2.25366 1.15186 4.71445L7.21205 5.27635L13.2722 4.71442C12.3592 2.25366 9.99054 0.5 7.21205 0.5Z" fill="black"/>
<path d="M1.15194 4.71445C0.892192 5.41451 0.75 6.17169 0.75 6.96214C0.75 7.75259 0.892192 8.50977 1.15194 9.20982H13.2724C13.5321 8.50977 13.6743 7.75259 13.6743 6.96214C13.6743 6.17169 13.5321 5.41451 13.2723 4.71445H1.15194Z" fill="#D80027"/>
</svg>
