<svg
    width="103px"
    height="103px"
    viewBox="0 0 103 103"
    version="1.1"
    xmlns="http://www.w3.org/2000/svg"
    role="img"
>
    <g stroke="none" strokeWidth="1" fill="none" fillRule="evenodd">
        <g fillRule="nonzero">
            <g>
                <circle fill="#0052B4" cx="51.2" cy="51.2" r="51.2" />
                <g transform="translate(20.000000, 20.000000)" fill="#FFDA44">
                    <polygon points="31.2002 0.0348 32.858 5.1366 38.222 5.1366 33.8822 8.2896 35.54 13.3914 31.2002 10.2382 26.8602 13.3914 28.518 8.2896 24.1782 5.1366 29.5424 5.1366" />
                    <polygon points="9.1628 9.1628 13.9428 11.598 17.7358 7.8052 16.8964 13.1032 21.6762 15.5386 16.378 16.3778 15.5388 21.6762 13.1034 16.8964 7.8054 17.7358 11.5984 13.9428" />
                    <polygon points="0.035 31.2 5.1368 29.5422 5.1368 24.178 8.2896 28.518 13.3916 26.8602 10.2382 31.2 13.3916 35.5398 8.2896 33.8822 5.1368 38.222 5.1368 32.8578" />
                    <polygon points="9.1628 53.2372 11.5982 48.4572 7.8054 44.6642 13.1036 45.5038 15.5386 40.724 16.378 46.0222 21.676 46.8614 16.8968 49.2968 17.7358 54.5948 13.9428 50.8018" />
                    <polygon points="31.2002 62.3652 29.5422 57.2634 24.1782 57.2634 28.5182 54.1104 26.8602 49.009 31.2002 52.1618 35.54 49.009 33.8822 54.1104 38.222 57.2634 32.8578 57.2634" />
                    <polygon points="53.2374 53.2372 48.4576 50.802 44.6644 54.595 45.5038 49.2966 40.7244 46.8614 46.0224 46.0222 46.8616 40.724 49.2968 45.5038 54.5948 44.6642 50.8018 48.4576" />
                    <polygon points="62.3652 31.2 57.2634 32.8578 57.2634 38.222 54.1104 33.882 49.009 35.5398 52.162 31.2 49.009 26.8602 54.1106 28.518 57.2634 24.178 57.2634 29.5424" />
                    <polygon points="53.2374 9.1628 50.802 13.9428 54.595 17.7358 49.2966 16.8962 46.8616 21.676 46.0224 16.3778 40.7244 15.5384 45.5038 13.1032 44.6644 7.8054 48.4578 11.5982" />
                </g>
            </g>
        </g>
    </g>
</svg>
