<svg width="14" height="14" viewBox="0 0 14 14" fill="none" xmlns="http://www.w3.org/2000/svg">
<path d="M7.21214 13.4243C10.7811 13.4243 13.6743 10.5311 13.6743 6.96214C13.6743 3.3932 10.7811 0.5 7.21214 0.5C3.6432 0.5 0.75 3.3932 0.75 6.96214C0.75 10.5311 3.6432 13.4243 7.21214 13.4243Z" fill="#F0F0F0"/>
<path d="M2.08589 3.02786C1.57828 3.68829 1.19552 4.44948 0.972656 5.27641H4.33443L2.08589 3.02786Z" fill="#0052B4"/>
<path d="M13.4518 5.27641C13.2289 4.44951 12.8462 3.68831 12.3386 3.02789L10.0901 5.27641H13.4518Z" fill="#0052B4"/>
<path d="M0.972656 8.64796C1.19555 9.47486 1.5783 10.2361 2.08588 10.8965L4.33435 8.64796H0.972656Z" fill="#0052B4"/>
<path d="M11.1465 1.83587C10.486 1.32827 9.72488 0.945511 8.89795 0.722618V4.08437L11.1465 1.83587Z" fill="#0052B4"/>
<path d="M3.27783 12.0884C3.93826 12.596 4.69945 12.9788 5.52635 13.2017V9.83994L3.27783 12.0884Z" fill="#0052B4"/>
<path d="M5.52633 0.722618C4.69943 0.945511 3.93823 1.32827 3.27783 1.83585L5.52633 4.08434V0.722618Z" fill="#0052B4"/>
<path d="M8.89795 13.2017C9.72485 12.9788 10.486 12.596 11.1465 12.0884L8.89795 9.83994V13.2017Z" fill="#0052B4"/>
<path d="M10.0901 8.64796L12.3386 10.8965C12.8462 10.2361 13.2289 9.47486 13.4518 8.64796H10.0901Z" fill="#0052B4"/>
<path d="M13.6196 6.11926H8.05507H8.05504V0.554701C7.77911 0.518781 7.49781 0.5 7.21214 0.5C6.92641 0.5 6.64516 0.518781 6.36926 0.554701V6.11921V6.11923H0.804701C0.768781 6.39516 0.75 6.67646 0.75 6.96214C0.75 7.24786 0.768781 7.52911 0.804701 7.80502H6.36921H6.36923V13.3696C6.64516 13.4055 6.92641 13.4243 7.21214 13.4243C7.49781 13.4243 7.77911 13.4055 8.05502 13.3696V7.80507V7.80504H13.6196C13.6555 7.52911 13.6743 7.24786 13.6743 6.96214C13.6743 6.67646 13.6555 6.39516 13.6196 6.11926Z" fill="#D80027"/>
<path d="M8.89795 8.64794L11.7816 11.5316C11.9142 11.399 12.0407 11.2604 12.1614 11.1167L9.69264 8.64792H8.89795V8.64794Z" fill="#D80027"/>
<path d="M5.52623 8.64795H5.52618L2.64258 11.5316C2.77515 11.6642 2.91376 11.7907 3.05744 11.9114L5.52623 9.44257V8.64795Z" fill="#D80027"/>
<path d="M5.52642 5.2764V5.27635L2.64279 2.3927C2.51017 2.52527 2.38365 2.66388 2.26294 2.80756L4.73175 5.27638H5.52642V5.2764Z" fill="#D80027"/>
<path d="M8.89795 5.2764L11.7816 2.39272C11.649 2.2601 11.5104 2.13358 11.3667 2.01289L8.89795 4.48171V5.2764H8.89795Z" fill="#D80027"/>
</svg>
