<?xml version="1.0" encoding="UTF-8"?>
<svg width="31px" height="24px" viewBox="0 0 31 24" version="1.1" xmlns="http://www.w3.org/2000/svg" xmlns:xlink="http://www.w3.org/1999/xlink">
    <g id="Page-1" stroke="none" stroke-width="1" fill="none" fill-rule="evenodd">
        <g id="logo-white" fill="#000000" fill-rule="nonzero">
            <path d="M0,0 L30.4,0 C30.4,0 16.4,15.5 9.4,23.2 C9.7,22.6 9.9,22.1 10.3,21.6 C10,21.6 9.6,20.3 9.3,19.7 L8.1,20.3 C7.9,20.5 7.5,20.4 7.3,20.2 C7.3,20.1 7.2,20.1 7.2,20 C7,19.6 6.9,19.2 6.7,18.7 C6.2,19 5.7,19.2 5.2,19.4 L0.3,17.3 L3.8,17.3 L5.4,18.6 C5.8,18.2 6.1,17.6 6.4,17.3 L7.3,17.3 C7.6,17.6 7.9,18.2 8.3,18.6 C8.7,18.2 9.1,17.7 9.5,17.4 L10.1,17.4 C10.4,17.7 10.8,18.2 11.1,18.5 L11.2,18.5 C11.2,18.5 11.8,17.7 12.1,17.4 L12.8,17.4 C12.8,17.4 21.8,3.9 21.8,3.8 C14.6,2.5 0,0 0,0" id="Path"></path>
            <polygon id="Path" points="8.9 8 3.9 5.2 12.8 7.3"></polygon>
        </g>
    </g>
</svg>
