<svg
    width="103px"
    height="103px"
    viewBox="0 0 103 103"
    version="1.1"
    xmlns="http://www.w3.org/2000/svg"
    role="img"
>
    <g stroke="none" strokeWidth="1" fill="none" fillRule="evenodd">
        <g fillRule="nonzero">
            <g>
                <circle fill="#F0F0F0" cx="51.2" cy="51.2" r="51.2" />
                <g transform="translate(1.600000, 0.000000)" fill="#D80027">
                    <path d="M0.1638,64.5566 C3.1262,75.5484 9.6552,85.0752 18.4348,91.821 L18.4348,64.5566 L0.1638,64.5566 Z" />
                    <path d="M45.1478,102.2052 C46.6154,102.3316 48.0996,102.4 49.6,102.4 C73.2558,102.4 93.161,86.3558 99.0362,64.5566 L45.1478,64.5566 L45.1478,102.2052 Z" />
                    <path d="M99.0362,37.8434 C93.161,16.0442 73.2558,0 49.6,0 C48.0996,0 46.6154,0.0684 45.1478,0.1948 L45.1478,37.8434 L99.0362,37.8434 Z" />
                    <path d="M18.4348,10.579 C9.6552,17.325 3.1262,26.8516 0.1638,37.8434 L18.4348,37.8434 L18.4348,10.579 Z" />
                </g>
                <path
                    d="M101.9666,44.5218 L40.0698,44.5218 L40.0696,44.5218 L40.0696,1.217 C35.338,2.2662 30.8522,3.9668 26.713,6.2254 L26.713,44.5214 L26.713,44.5216 L0.4334,44.5216 C0.1484,46.7078 0,48.9366 0,51.2 C0,53.4634 0.1484,55.6922 0.4334,57.8782 L26.7128,57.8782 L26.713,57.8782 L26.713,96.1744 C30.8522,98.4328 35.338,100.1338 40.0696,101.1828 L40.0696,57.8788 L40.0696,57.8784 L101.9666,57.8784 C102.2512,55.6922 102.4,53.4634 102.4,51.2 C102.4,48.9366 102.2512,46.7078 101.9666,44.5218 Z"
                    fill="#0052B4"
                />
            </g>
        </g>
    </g>
</svg>
