<svg xmlns="http://www.w3.org/2000/svg" width="17" height="17" fill="none">
	<g clip-path="url(#a)">
		<mask id="b" width="17" height="17" x="0" y="0" maskUnits="userSpaceOnUse" style="mask-type:luminance">
			<path fill="#fff" d="M16.5.5H.5v16h16V.5Z" />
		</mask>
		<g mask="url(#b)">
			<path fill="#fff" d="M8.5 16c4.1421 0 7.5-3.3579 7.5-7.5S12.6421 1 8.5 1 1 4.3579 1 8.5 4.3579 16 8.5 16Z" />
			<path fill="#000" d="M8.5.5c-4.4 0-8 3.6-8 8s3.6 8 8 8 8-3.6 8-8-3.6-8-8-8Zm0 15c-2 0-3.6667-1-4.3333-1.6667.6-.8 1.1333-2.5333.5333-3.3333-.5-.7-1.3-1.4-1.3-2 0-.8 1.9-1.1 2.5-1.9.7-.8-.3667-3.3-1.0667-4.1.3334-.3333 1-.6667 1.3334-.6667C6.3667 2.3333 8.9 3.6 9.2 4c.5.8.6 1.3 1.3 1.3.2 0 2.6667-.5 3.6667-.8.5236.8 1.3333 2 1.3333 4 0 3.3-2.7417 7-7 7Z" />
			<path fill="#000" d="M10.7 7.2002c-1.2 0-2.3.8-2.2 1.9.3 2.5-.5 3.4.6 3.9 1.3.5 3.9-1.9 3.8-3.9 0-1.1-.9-1.9-2.2-1.9Z" />
		</g>
	</g>
	<defs>
		<clipPath id="a">
			<path fill="#fff" d="M.5.5h16v16H.5z" />
		</clipPath>
	</defs>
</svg>
