<svg
    width="103px"
    height="103px"
    viewBox="0 0 103 103"
    version="1.1"
    xmlns="http://www.w3.org/2000/svg"
    role="img"
>
    <g stroke="none" strokeWidth="1" fill="none" fillRule="evenodd">
        <g fillRule="nonzero">
            <g>
                <circle fill="#FFDA44" cx="51.2" cy="51.2" r="51.2" />
                <g transform="translate(0.400000, 0.000000)" fill="#0052B4">
                    <path d="M39.6696,44.5218 L101.5666,44.5218 C98.294,19.4004 76.8134,0 50.8,0 C46.9772,0 43.2534,0.4226 39.6696,1.217 L39.6696,44.5218 L39.6696,44.5218 Z" />
                    <path d="M26.313,44.5218 L26.313,6.2254 C12.2542,13.8962 2.19,27.9664 0.0334,44.5218 L26.313,44.5218 L26.313,44.5218 Z" />
                    <path d="M26.313,57.8782 L0.0334,57.8782 C2.19,74.4336 12.2542,88.5038 26.313,96.1744 L26.313,57.8782 L26.313,57.8782 Z" />
                    <path d="M39.6696,57.8782 L39.6696,101.183 C43.2534,101.9774 46.9772,102.4 50.8,102.4 C76.8134,102.4 98.294,82.9996 101.5666,57.8782 L39.6696,57.8782 L39.6696,57.8782 Z" />
                </g>
            </g>
        </g>
    </g>
</svg>
