<svg width="13" height="14" viewBox="0 0 13 14" fill="none" xmlns="http://www.w3.org/2000/svg">
<path d="M6.46214 13.4665C10.0311 13.4665 12.9243 10.5733 12.9243 7.00437C12.9243 3.43543 10.0311 0.542236 6.46214 0.542236C2.8932 0.542236 0 3.43543 0 7.00437C0 10.5733 2.8932 13.4665 6.46214 13.4665Z" fill="#F0F0F0"/>
<path d="M6.18115 7.00437H12.9242C12.9242 6.42112 12.8465 5.85608 12.7016 5.31859H6.18115V7.00437Z" fill="#D80027"/>
<path d="M6.18115 3.63283H11.9758C11.5802 2.98732 11.0744 2.41676 10.4847 1.94704H6.18115V3.63283Z" fill="#D80027"/>
<path d="M6.46227 13.4665C7.98312 13.4665 9.38099 12.9409 10.4849 12.0617H2.4397C3.54356 12.9409 4.94143 13.4665 6.46227 13.4665Z" fill="#D80027"/>
<path d="M0.948511 10.3759H11.9758C12.2934 9.8577 12.5397 9.29126 12.7017 8.69013H0.222656C0.384639 9.29126 0.630932 9.8577 0.948511 10.3759Z" fill="#D80027"/>
<path fill-rule="evenodd" clip-rule="evenodd" d="M3.58227 1.55139H2.99338C3.99554 0.912547 5.18556 0.542236 6.46214 0.542236V7.00437H0C0 6.73147 0.0171146 6.46259 0.0499553 6.1986L0.37806 5.96021L0.925802 6.35816L0.716565 5.71424L1.26433 5.31629H0.587272L0.403833 4.75166C0.467318 4.58089 0.537948 4.41361 0.615165 4.25001L0.925802 4.47571L0.759301 3.96326C0.809231 3.86983 0.861332 3.77777 0.915654 3.68715L1.26433 3.43384H1.07564C1.42399 2.9094 1.84671 2.43872 2.32899 2.03698L2.14826 2.59326L2.696 2.19531L3.24374 2.59326L3.0345 1.94934L3.58227 1.55139ZM2.696 5.96021L3.24374 6.35816L3.0345 5.71424L3.58227 5.31629H2.90521L2.696 4.67237L2.48679 5.31629H1.80973L2.35749 5.71424L2.14826 6.35816L2.696 5.96021ZM3.0345 3.83179L3.24374 4.47571L2.696 4.07776L2.14826 4.47571L2.35749 3.83179L1.80973 3.43384H2.48679L2.696 2.78992L2.90521 3.43384H3.58227L3.0345 3.83179ZM5.01394 5.96021L5.56168 6.35816L5.35244 5.71424L5.90021 5.31629H5.22315L5.01394 4.67237L4.80472 5.31629H4.12766L4.67543 5.71424L4.46619 6.35816L5.01394 5.96021ZM5.35244 3.83179L5.56168 4.47571L5.01394 4.07776L4.46619 4.47571L4.67543 3.83179L4.12766 3.43384H4.80472L5.01394 2.78992L5.22315 3.43384H5.90021L5.35244 3.83179ZM5.56168 2.59326L5.35244 1.94934L5.90021 1.55139H5.22315L5.01394 0.907473L4.80472 1.55139H4.12766L4.67543 1.94934L4.46619 2.59326L5.01394 2.19531L5.56168 2.59326Z" fill="#0052B4"/>
</svg>
